<?xml version="1.0" standalone="no"?>
<!DOCTYPE svg PUBLIC "-//W3C//DTD SVG 20010904//EN"
 "http://www.w3.org/TR/2001/REC-SVG-20010904/DTD/svg10.dtd">
<svg version="1.0" xmlns="http://www.w3.org/2000/svg"
 width="1280.000000pt" height="1280.000000pt" viewBox="0 0 1280.000000 1280.000000"
 preserveAspectRatio="xMidYMid meet">
<metadata>
Created by potrace 1.16, written by Peter Selinger 2001-2019
</metadata>
<g transform="translate(0.000000,1280.000000) scale(0.100000,-0.100000)"
fill="#000000" stroke="none">
<path d="M6015 12794 c-22 -2 -98 -9 -170 -14 -679 -56 -1398 -240 -2026 -518
-1378 -612 -2477 -1659 -3146 -2997 -363 -725 -564 -1433 -654 -2295 -17 -165
-23 -792 -10 -986 118 -1696 869 -3239 2125 -4361 1064 -951 2389 -1508 3831
-1613 178 -13 689 -13 865 0 1251 91 2404 516 3398 1254 561 416 1070 949
1473 1541 555 814 923 1782 1048 2756 42 331 46 396 46 844 0 434 -3 488 -41
795 -194 1585 -1007 3077 -2236 4106 -902 755 -1990 1247 -3148 1425 -328 50
-486 61 -910 64 -223 1 -423 1 -445 -1z m870 -374 c1476 -130 2791 -747 3816
-1787 474 -481 820 -969 1119 -1578 267 -543 441 -1089 539 -1685 221 -1343
-22 -2719 -690 -3918 -535 -959 -1355 -1781 -2310 -2315 -1671 -934 -3638
-1029 -5394 -263 -161 71 -495 242 -635 326 -766 458 -1419 1070 -1912 1790
-889 1298 -1237 2895 -967 4445 143 822 459 1613 922 2310 427 641 1015 1233
1653 1662 901 605 1925 952 3024 1023 165 10 671 5 835 -10z"/>
<path d="M5435 8344 c-94 -48 -130 -145 -90 -242 11 -26 264 -285 848 -869
l832 -833 -832 -832 c-584 -585 -837 -844 -848 -870 -59 -144 56 -282 212
-254 34 7 134 103 962 929 538 538 929 935 937 954 18 41 18 105 0 146 -18 42
-1841 1863 -1879 1877 -41 15 -107 12 -142 -6z"/>
</g>
</svg>
